<mxfile host="app.diagrams.net" modified="2024-02-04T06:28:23.982Z" agent="Mozilla/5.0 (Macintosh; Intel Mac OS X 10_15_7) AppleWebKit/537.36 (KHTML, like Gecko) Chrome/121.0.0.0 Safari/537.36" version="23.1.1" etag="AUiD7Quiqs5_To_s4RZt" type="github">
  <diagram name="Page-1" id="XCVHL-G8W7wccv7-uyr7">
    <mxGraphModel>
      <root>
        <mxCell id="0" />
        <mxCell id="1" parent="0" />
      </root>
    </mxGraphModel>
  </diagram>
</mxfile>
